<svg xmlns="http://www.w3.org/2000/svg" xmlns:xlink="http://www.w3.org/1999/xlink" version="1.1" preserveAspectRatio="xMidYMid meet" width="450" height="450"><rect id="backgroundrect" width="100%" height="100%" x="0" y="0" fill="none" stroke="none"/><defs><path d="M545.46 329.58C545.46 453.76 444.64 554.58 320.46 554.58C196.28 554.58 95.46 453.76 95.46 329.58C95.46 205.4 196.28 104.58 320.46 104.58C444.64 104.58 545.46 205.4 545.46 329.58Z" id="b5rKPLMSNA"/><path d="M465.73 170.26C471.36 170.26 475.92 174.82 475.92 180.45C475.92 182.49 475.92 178.41 475.92 180.45C475.92 186.08 471.36 190.65 465.73 190.65C405.58 190.65 235.34 190.65 175.19 190.65C169.56 190.65 165 186.08 165 180.45C165 178.41 165 182.49 165 180.45C165 174.82 169.56 170.26 175.19 170.26C235.34 170.26 405.58 170.26 465.73 170.26Z" id="d57TvktdPo"/><path d="M465.73 467.1C471.36 467.1 475.92 471.67 475.92 477.3C475.92 479.34 475.92 475.26 475.92 477.3C475.92 482.93 471.36 487.49 465.73 487.49C405.58 487.49 235.34 487.49 175.19 487.49C169.56 487.49 165 482.93 165 477.3C165 475.26 165 479.34 165 477.3C165 471.67 169.56 467.1 175.19 467.1C235.34 467.1 405.58 467.1 465.73 467.1Z" id="a1aHsKh83Y"/><path d="M256.91 346.94C258.75 344.41 262.3 343.85 264.83 345.7C267.06 347.33 269.16 348.86 271.39 350.49C273.92 352.33 274.47 355.88 272.62 358.41C253.79 384.2 200.64 456.99 181.81 482.78C179.96 485.31 176.41 485.87 173.88 484.02C171.66 482.39 169.56 480.86 167.33 479.23C164.8 477.39 164.24 473.84 166.09 471.31C184.92 445.52 238.07 372.73 256.91 346.94Z" id="aDPvUmxid"/><path d="M459.11 175.11C460.96 172.58 464.51 172.03 467.04 173.88C469.27 175.51 471.37 177.04 473.6 178.66C476.13 180.51 476.68 184.06 474.83 186.59C456 212.38 402.85 285.17 384.02 310.96C382.17 313.49 378.62 314.05 376.09 312.2C373.86 310.57 371.76 309.04 369.54 307.41C367.01 305.56 366.45 302.02 368.3 299.48C387.13 273.69 440.28 200.91 459.11 175.11Z" id="b2A6FQUDFp"/><path d="M375.8 236.74C378.5 233.05 383.68 232.25 387.37 234.94C389.18 236.26 387.91 235.34 389.72 236.66C393.41 239.35 394.22 244.53 391.52 248.22C364.05 285.84 286.52 392.03 259.05 429.65C256.35 433.34 251.17 434.15 247.48 431.45C245.67 430.13 246.94 431.06 245.13 429.74C241.44 427.04 240.63 421.86 243.33 418.17C270.8 380.55 348.33 274.37 375.8 236.74Z" id="d77zVgc8z"/></defs><g class="currentLayer" style=""><title>Layer 1</title><g id="svg_1" class=""><g id="svg_2"><g id="svg_3"><use xlink:href="#b5rKPLMSNA" opacity="1" fill="#000000" fill-opacity="1" id="svg_4" y="-104.58000183105469" x="-95.45999908447266"/></g><g id="svg_5"><use xlink:href="#d57TvktdPo" opacity="1" fill="#ffffff" fill-opacity="1" id="svg_6" y="-104.58000183105469" x="-95.45999908447266"/></g><g id="svg_7"><use xlink:href="#a1aHsKh83Y" opacity="1" fill="#ffffff" fill-opacity="1" id="svg_8" y="-104.58000183105469" x="-95.45999908447266"/></g><g id="svg_9"><use xlink:href="#aDPvUmxid" opacity="1" fill="#ffffff" fill-opacity="1" id="svg_10" y="-104.58000183105469" x="-95.45999908447266"/></g><g id="svg_11"><use xlink:href="#b2A6FQUDFp" opacity="1" fill="#ffffff" fill-opacity="1" id="svg_12" y="-104.58000183105469" x="-95.45999908447266"/></g><g id="svg_13"><use xlink:href="#d77zVgc8z" opacity="1" fill="#ffffff" fill-opacity="1" id="svg_14" y="-104.58000183105469" x="-95.45999908447266"/></g></g></g></g></svg>