<?xml version="1.0" encoding="UTF-8" standalone="no"?>
<!DOCTYPE svg PUBLIC "-//W3C//DTD SVG 1.1//EN" "http://www.w3.org/Graphics/SVG/1.1/DTD/svg11.dtd">
<svg version="1.1" xmlns="http://www.w3.org/2000/svg" xmlns:xlink="http://www.w3.org/1999/xlink" preserveAspectRatio="xMidYMid meet" viewBox="268.9999999999996 180.0977888107301 104.00000000000011 104" width="640" height="640"><defs><path d="M370 231.1C370 258.69 347.6 281.1 320 281.1C292.4 281.1 270 258.69 270 231.1C270 203.5 292.4 181.1 320 181.1C347.6 181.1 370 203.5 370 231.1Z" id="d2aYtPqlSQ"></path><path d="M316.39 215.09L316.51 215.46L316.64 215.84L316.77 216.22L316.9 216.6L317.03 216.98L317.17 217.37L317.32 217.75L317.46 218.14L317.61 218.54L317.77 218.93L317.93 219.33L318.09 219.72L318.25 220.12L318.42 220.52L318.6 220.92L318.77 221.32L318.95 221.72L319.13 222.12L319.32 222.52L319.51 222.93L319.7 223.33L319.9 223.73L320.1 224.13L320.3 224.53L320.51 224.94L320.72 225.34L320.93 225.73L321.15 226.13L321.36 226.53L321.59 226.93L321.81 227.32L322.04 227.71L322.27 228.1L322.5 228.49L322.74 228.88L322.98 229.26L323.22 229.64L323.46 230.02L323.61 229.49L323.78 228.96L323.95 228.44L324.14 227.94L324.34 227.44L324.55 226.96L324.78 226.48L325.01 226.02L325.26 225.57L325.51 225.13L325.78 224.71L326.05 224.29L326.34 223.89L326.64 223.5L326.95 223.12L327.27 222.76L327.59 222.4L327.93 222.06L328.28 221.74L328.63 221.42L329 221.12L329.37 220.84L329.76 220.57L330.15 220.31L330.55 220.07L330.96 219.84L331.38 219.62L331.8 219.42L332.23 219.23L332.68 219.06L333.13 218.91L333.58 218.77L334.05 218.64L334.52 218.54L335 218.44L335.48 218.37L335.97 218.31L336.47 218.26L336.98 218.23L337.49 218.22L338.08 218.23L338.67 218.27L339.25 218.32L339.82 218.4L340.39 218.5L340.95 218.63L341.5 218.77L342.04 218.94L342.58 219.13L343.1 219.34L343.62 219.56L344.12 219.81L344.61 220.08L345.09 220.36L345.56 220.66L346.02 220.98L346.46 221.31L346.89 221.67L347.31 222.03L347.71 222.42L348.1 222.82L348.47 223.23L348.82 223.66L349.16 224.1L349.49 224.55L349.79 225.02L350.08 225.49L350.35 225.98L350.6 226.48L350.83 227L351.05 227.52L351.24 228.05L351.41 228.59L351.56 229.14L351.69 229.7L351.8 230.27L351.88 230.84L351.95 231.42L351.99 232.01L352 232.6L351.99 233.22L351.96 233.83L351.9 234.44L351.82 235.03L351.72 235.62L351.6 236.2L351.45 236.77L351.28 237.33L351.1 237.88L350.89 238.42L350.66 238.95L350.41 239.47L350.15 239.97L349.87 240.47L349.56 240.95L349.25 241.41L348.91 241.87L348.56 242.3L348.19 242.73L347.81 243.14L347.41 243.53L347 243.91L346.57 244.27L346.13 244.61L345.68 244.94L345.21 245.25L344.73 245.54L344.24 245.81L343.74 246.07L343.23 246.3L342.71 246.51L342.18 246.71L341.63 246.88L341.08 247.03L340.53 247.16L339.96 247.27L339.39 247.35L338.81 247.42L338.22 247.45L337.63 247.47L337.34 247.47L337.06 247.46L336.78 247.46L336.5 247.44L336.23 247.43L335.96 247.41L335.68 247.38L335.41 247.35L335.15 247.32L334.88 247.29L334.62 247.25L334.35 247.2L334.09 247.16L333.84 247.11L333.58 247.05L333.32 246.99L333.07 246.93L332.82 246.87L332.57 246.8L332.32 246.73L332.07 246.65L331.83 246.57L331.59 246.49L331.34 246.41L331.1 246.32L330.87 246.23L330.63 246.13L330.39 246.04L330.16 245.93L329.93 245.83L329.7 245.72L329.47 245.61L329.24 245.5L329.01 245.38L328.79 245.27L328.57 245.14L328.34 245.02L328.12 244.89L327.9 244.76L327.69 244.63L324.51 259.99L317.11 260.02L321.52 238.88L321.37 238.68L321.22 238.47L321.07 238.27L320.93 238.06L320.78 237.85L320.63 237.64L320.49 237.43L320.34 237.22L320.2 237.01L320.06 236.8L319.92 236.58L319.77 236.37L319.63 236.15L319.5 235.94L319.36 235.72L319.22 235.5L319.08 235.28L318.95 235.07L318.81 234.85L318.68 234.63L318.55 234.41L318.41 234.19L318.28 233.97L318.16 233.75L318.03 233.53L317.9 233.31L317.77 233.09L317.65 232.87L317.52 232.65L317.4 232.42L317.28 232.2L317.16 231.98L317.04 231.77L316.92 231.55L316.81 231.33L316.69 231.11L316.58 230.89L316.47 230.67L316.35 230.46L316.25 230.24L316.26 233.49L316.25 234.08L316.22 234.67L316.16 235.25L316.09 235.82L315.99 236.38L315.87 236.94L315.72 237.49L315.56 238.03L315.38 238.56L315.18 239.07L314.95 239.58L314.71 240.08L314.46 240.57L314.18 241.04L313.89 241.5L313.58 241.95L313.25 242.39L312.91 242.81L312.55 243.22L312.18 243.62L311.79 244L311.39 244.36L310.97 244.71L310.54 245.05L310.1 245.36L309.64 245.66L309.18 245.94L308.7 246.21L308.21 246.45L307.71 246.68L307.2 246.89L306.68 247.08L306.16 247.24L305.62 247.39L305.07 247.52L304.52 247.62L303.96 247.71L303.39 247.77L302.82 247.8L302.24 247.82L301.66 247.81L301.09 247.78L300.52 247.72L299.96 247.65L299.4 247.55L298.86 247.43L298.32 247.28L297.79 247.12L297.27 246.94L296.76 246.74L296.26 246.51L295.77 246.27L295.29 246.01L294.82 245.73L294.36 245.44L293.92 245.13L293.48 244.8L293.06 244.45L292.66 244.09L292.27 243.72L291.89 243.32L291.53 242.92L291.18 242.5L290.85 242.06L290.54 241.62L290.24 241.16L289.96 240.68L289.7 240.2L289.45 239.71L289.23 239.2L289.02 238.68L288.84 238.15L288.67 237.62L288.52 237.07L288.4 236.52L288.29 235.95L288.21 235.38L288.15 234.8L288.11 234.22L288.1 233.62L288 214.49L295.22 214.45L295.32 233.59L295.33 233.87L295.35 234.15L295.38 234.43L295.42 234.7L295.47 234.97L295.53 235.24L295.6 235.5L295.68 235.76L295.78 236.01L295.88 236.26L295.99 236.5L296.1 236.74L296.23 236.97L296.37 237.2L296.51 237.42L296.67 237.63L296.83 237.84L297 238.05L297.17 238.24L297.36 238.43L297.55 238.61L297.74 238.79L297.95 238.95L298.16 239.11L298.38 239.26L298.6 239.41L298.83 239.54L299.06 239.67L299.3 239.78L299.54 239.89L299.79 239.99L300.05 240.08L300.31 240.16L300.57 240.23L300.83 240.28L301.1 240.33L301.38 240.37L301.65 240.4L301.93 240.41L302.22 240.42L302.5 240.41L302.78 240.39L303.06 240.36L303.33 240.32L303.6 240.27L303.87 240.21L304.13 240.14L304.38 240.06L304.64 239.97L304.89 239.87L305.13 239.76L305.37 239.64L305.6 239.51L305.83 239.37L306.05 239.23L306.26 239.07L306.47 238.91L306.67 238.74L306.87 238.57L307.06 238.38L307.24 238.19L307.42 238L307.58 237.79L307.74 237.58L307.89 237.37L308.04 237.14L308.17 236.91L308.3 236.68L308.41 236.44L308.52 236.2L308.62 235.95L308.71 235.69L308.79 235.44L308.85 235.17L308.91 234.91L308.96 234.64L309 234.36L309.03 234.09L309.04 233.81L309.05 233.52L308.95 214.39L316.17 214.35L316.28 214.72L316.39 215.09ZM334.63 226.14L333.46 226.92L332.5 227.91L331.74 229.04L331.15 230.25L330.7 231.49L330.38 232.68L330.16 233.77L330.16 233.96L329.45 236.86L330.26 237.49L331.1 238.06L331.97 238.57L332.86 239.01L333.78 239.38L334.72 239.68L335.67 239.89L336.63 240.02L337.59 240.06L338.84 239.94L340.03 239.59L341.15 239.05L342.17 238.32L343.07 237.43L343.82 236.39L344.4 235.23L344.79 233.97L344.96 232.62L344.83 231.33L344.49 230.11L343.95 228.99L343.23 227.98L342.36 227.12L341.35 226.41L340.22 225.88L339 225.55L337.7 225.43L336.03 225.63L334.63 226.14Z" id="dSb8vFTmb"></path><path d="" id="h8yBXxydP"></path></defs><g><g><use xlink:href="#d2aYtPqlSQ" opacity="1" fill="#6fda44" fill-opacity="1"></use></g><g><use xlink:href="#dSb8vFTmb" opacity="1" fill="#ffffff" fill-opacity="1"></use><g><use xlink:href="#dSb8vFTmb" opacity="1" fill-opacity="0" stroke="#000000" stroke-width="1" stroke-opacity="0"></use></g></g><g><g><use xlink:href="#h8yBXxydP" opacity="1" fill-opacity="0" stroke="#000000" stroke-width="1" stroke-opacity="1"></use></g></g></g></svg>