<?xml version="1.0" standalone="no"?><svg xmlns="http://www.w3.org/2000/svg" viewBox="0 0 1440 320"><path fill="#a73288" fill-opacity="1" d="M0,96L40,112C80,128,160,160,240,154.7C320,149,400,107,480,74.7C560,43,640,21,720,53.3C800,85,880,171,960,192C1040,213,1120,171,1200,149.3C1280,128,1360,128,1400,128L1440,128L1440,320L1400,320C1360,320,1280,320,1200,320C1120,320,1040,320,960,320C880,320,800,320,720,320C640,320,560,320,480,320C400,320,320,320,240,320C160,320,80,320,40,320L0,320Z"></path></svg>